<svg width="223" height="110" viewBox="0 0 223 110" fill="none" xmlns="http://www.w3.org/2000/svg">
<path d="M0 109.45V0H44.1C79.03 0 100.6 20.92 100.6 54.88C100.6 88.85 79.03 109.45 44.1 109.45H0ZM44.11 85.63C60.85 85.63 70.51 74.52 70.51 54.88C70.51 35.25 60.85 23.82 44.11 23.82H29.46V85.63H44.11ZM100.58 109.45V0H144.69C179.62 0 201.19 20.92 201.19 54.88C201.19 88.85 179.62 109.45 144.69 109.45H100.58ZM144.68 85.63C161.42 85.63 171.08 74.52 171.08 54.88C171.08 35.25 161.42 23.82 144.68 23.82H130.03V85.63H144.68ZM194.51 109.45V80.96H223V109.45H194.51Z" fill="white"/>
</svg>
