<svg width="290" height="38" viewBox="0 0 290 38" fill="none" xmlns="http://www.w3.org/2000/svg">
<path d="M13.441 36.8608H-5.37932e-06V0.497157H13.4233C17.1283 0.497157 20.3184 1.22514 22.9936 2.68111C25.6806 4.12523 27.7521 6.20857 29.2081 8.93111C30.6641 11.6418 31.392 14.8852 31.392 18.6612C31.392 22.4491 30.6641 25.7043 29.2081 28.4268C27.764 31.1494 25.6984 33.2386 23.0114 34.6946C20.3243 36.1387 17.1342 36.8608 13.441 36.8608ZM8.78906 29.3679H13.1037C15.1397 29.3679 16.862 29.0246 18.2706 28.3381C19.691 27.6397 20.7623 26.5092 21.4844 24.9467C22.2183 23.3724 22.5852 21.2772 22.5852 18.6612C22.5852 16.0452 22.2183 13.9619 21.4844 12.4112C20.7505 10.8487 19.6674 9.72419 18.2351 9.03764C16.8146 8.33925 15.0627 7.99005 12.9794 7.99005H8.78906V29.3679ZM36.5234 36.8608V0.497157H61.8785V7.63494H45.3125V15.0923H60.5824V22.2479H45.3125V29.723H61.8785V36.8608H36.5234ZM75.6392 0.497157L83.7713 27.1307H84.0731L92.2053 0.497157H102.042L89.7727 36.8608H78.0717L65.8026 0.497157H75.6392ZM119.398 36.8608H105.957V0.497157H119.38C123.085 0.497157 126.275 1.22514 128.951 2.68111C131.638 4.12523 133.709 6.20857 135.165 8.93111C136.621 11.6418 137.349 14.8852 137.349 18.6612C137.349 22.4491 136.621 25.7043 135.165 28.4268C133.721 31.1494 131.655 33.2386 128.968 34.6946C126.281 36.1387 123.091 36.8608 119.398 36.8608ZM114.746 29.3679H119.061C121.097 29.3679 122.819 29.0246 124.228 28.3381C125.648 27.6397 126.719 26.5092 127.441 24.9467C128.175 23.3724 128.542 21.2772 128.542 18.6612C128.542 16.0452 128.175 13.9619 127.441 12.4112C126.708 10.8487 125.624 9.72419 124.192 9.03764C122.772 8.33925 121.02 7.99005 118.936 7.99005H114.746V29.3679ZM142.48 36.8608V0.497157H167.836V7.63494H151.27V15.0923H166.539V22.2479H151.27V29.723H167.836V36.8608H142.48ZM192.995 11.3991C192.877 10.0971 192.35 9.08499 191.415 8.36293C190.492 7.62902 189.172 7.26207 187.456 7.26207C186.319 7.26207 185.372 7.41004 184.615 7.70596C183.857 8.00189 183.289 8.41027 182.91 8.93111C182.531 9.4401 182.336 10.026 182.324 10.6889C182.301 11.2334 182.407 11.7128 182.644 12.1271C182.892 12.5414 183.248 12.9084 183.709 13.228C184.183 13.5357 184.751 13.808 185.414 14.0447C186.077 14.2815 186.822 14.4886 187.651 14.6662L190.776 15.3764C192.575 15.767 194.161 16.2879 195.534 16.9389C196.919 17.59 198.079 18.3653 199.015 19.2649C199.962 20.1645 200.678 21.2003 201.163 22.3722C201.648 23.544 201.897 24.858 201.909 26.3139C201.897 28.6103 201.317 30.5812 200.169 32.2266C199.02 33.8719 197.369 35.1326 195.215 36.0085C193.072 36.8845 190.486 37.3224 187.456 37.3224C184.413 37.3224 181.762 36.8667 179.501 35.9553C177.24 35.0438 175.482 33.6589 174.228 31.8004C172.973 29.942 172.328 27.5923 172.292 24.7514H180.708C180.779 25.9233 181.093 26.8999 181.649 27.6811C182.206 28.4624 182.969 29.0542 183.94 29.4567C184.922 29.8591 186.059 30.0604 187.349 30.0604C188.533 30.0604 189.539 29.9006 190.368 29.581C191.208 29.2614 191.853 28.8175 192.303 28.2493C192.753 27.6811 192.984 27.0301 192.995 26.2962C192.984 25.6096 192.77 25.0237 192.356 24.5384C191.942 24.0412 191.303 23.6151 190.439 23.2599C189.586 22.893 188.497 22.5556 187.172 22.2479L183.372 21.3601C180.223 20.638 177.743 19.4721 175.932 17.8622C174.121 16.2405 173.221 14.0507 173.233 11.2926C173.221 9.04356 173.825 7.07268 175.044 5.37997C176.264 3.68726 177.95 2.36742 180.105 1.42045C182.259 0.473483 184.715 -2.74181e-06 187.473 -2.74181e-06C190.291 -2.74181e-06 192.735 0.4794 194.806 1.43821C196.89 2.38518 198.506 3.71685 199.654 5.43324C200.802 7.14962 201.388 9.13825 201.412 11.3991H192.995ZM215.137 0.497157V36.8608H206.348V0.497157H215.137ZM244.518 12.3757C244.317 11.63 244.021 10.973 243.63 10.4048C243.24 9.82481 242.76 9.33357 242.192 8.93111C241.624 8.52864 240.973 8.2268 240.239 8.02557C239.505 7.8125 238.7 7.70596 237.824 7.70596C236.06 7.70596 234.533 8.1321 233.243 8.98437C231.965 9.83665 230.976 11.0795 230.278 12.7131C229.579 14.3348 229.23 16.3056 229.23 18.6257C229.23 20.9576 229.568 22.9463 230.242 24.5916C230.917 26.237 231.894 27.4917 233.172 28.3558C234.45 29.2199 236.001 29.652 237.824 29.652C239.434 29.652 240.795 29.3916 241.908 28.8707C243.032 28.3381 243.885 27.5864 244.465 26.6158C245.045 25.6451 245.335 24.5028 245.335 23.1889L246.968 23.3842H238.126V16.9744H253.804V21.7862C253.804 25.0414 253.112 27.8291 251.727 30.1491C250.354 32.4692 248.46 34.2507 246.045 35.4936C243.642 36.7365 240.878 37.358 237.753 37.358C234.285 37.358 231.237 36.6063 228.609 35.103C225.981 33.5997 223.933 31.4571 222.465 28.6754C220.998 25.8819 220.264 22.5675 220.264 18.7322C220.264 15.7493 220.708 13.1037 221.595 10.7955C222.483 8.47538 223.72 6.51041 225.306 4.90057C226.904 3.29072 228.751 2.07149 230.846 1.24289C232.953 0.414296 235.22 -2.74181e-06 237.646 -2.74181e-06C239.753 -2.74181e-06 241.713 0.301844 243.524 0.905538C245.347 1.50923 246.956 2.3615 248.353 3.46236C249.762 4.56321 250.904 5.87121 251.78 7.38636C252.656 8.90151 253.2 10.5646 253.414 12.3757H244.518ZM289.933 0.497157V36.8608H282.475L268.004 15.8736H267.773V36.8608H258.984V0.497157H266.548L280.859 21.4489H281.161V0.497157H289.933Z" fill="black"/>
</svg>
