<svg width="1449" height="198" viewBox="0 0 1449 198" fill="none" xmlns="http://www.w3.org/2000/svg">
<path d="M8.25 154V52H49.35C81.9 52 102 71.5 102 103.15C102 134.8 81.9 154 49.35 154H8.25ZM49.35 131.8C64.95 131.8 73.95 121.45 73.95 103.15C73.95 84.85 64.95 74.2 49.35 74.2H35.7V131.8H49.35ZM115.477 154V52H190.027V73.6H142.927V91.45H184.027V112.45H142.927V132.4H190.027V154H115.477ZM225.257 52L246.557 114.85L249.707 127.9L252.857 114.85L274.157 52H301.757L265.007 154H232.757L196.157 52H225.257ZM310.594 154V52H351.694C384.244 52 404.344 71.5 404.344 103.15C404.344 134.8 384.244 154 351.694 154H310.594ZM351.694 131.8C367.294 131.8 376.294 121.45 376.294 103.15C376.294 84.85 367.294 74.2 351.694 74.2H338.044V131.8H351.694ZM417.82 154V52H492.37V73.6H445.27V91.45H486.37V112.45H445.27V132.4H492.37V154H417.82ZM530.75 78.55C530.75 98.2 590 81.1 590 122.65C590 144.1 572 156.7 547.55 156.7C522.8 156.7 504.65 145.15 501.35 121.15H530.15C531.65 130.45 538.25 135.55 547.85 135.55C557.15 135.55 561.95 131.95 561.95 126.1C561.95 105.85 502.7 121.3 502.7 81.4C502.7 63.4 517.4 49.3 543.5 49.3C565.1 49.3 584.15 59.65 587.15 83.8H557.9C556.25 74.8 551.15 70.45 542.3 70.45C535.4 70.45 530.75 73.6 530.75 78.55ZM601.805 154V52H629.255V154H601.805ZM739.05 154H720.9L718.65 143.8C712.35 152.5 702.45 156.7 690.75 156.7C661.95 156.7 642.6 136.3 642.6 103.15C642.6 70 661.95 49.3 693.15 49.3C715.8 49.3 734.85 61.6 739.2 85.75H710.55C708 76.45 701.7 71.65 692.4 71.65C678.6 71.65 670.65 83.5 670.65 103.15C670.65 122.8 679.05 134.35 693.3 134.35C703.05 134.35 711.3 129.55 713.1 118.15H695.85V97.9H739.05V154ZM754.002 154V52H782.952L810.402 99.7L818.802 117.85L817.302 52H844.602V154H815.652L788.202 106.15L779.952 88.3L781.452 154H754.002ZM859.579 154V127.45H886.129V154H859.579ZM925.526 78.55C925.526 98.2 984.776 81.1 984.776 122.65C984.776 144.1 966.776 156.7 942.326 156.7C917.576 156.7 899.426 145.15 896.126 121.15H924.926C926.426 130.45 933.026 135.55 942.626 135.55C951.926 135.55 956.726 131.95 956.726 126.1C956.726 105.85 897.476 121.3 897.476 81.4C897.476 63.4 912.176 49.3 938.276 49.3C959.876 49.3 978.926 59.65 981.926 83.8H952.676C951.026 74.8 945.926 70.45 937.076 70.45C930.176 70.45 925.526 73.6 925.526 78.55ZM1017.54 154V74.2H986.943V52H1075.44V74.2H1044.84V154H1017.54ZM1175.46 115.15C1175.46 140.8 1158.36 156.7 1130.91 156.7C1103.31 156.7 1086.36 140.8 1086.36 115.15V52H1113.66V115.15C1113.66 127.3 1119.96 134.5 1130.91 134.5C1141.86 134.5 1148.01 127.3 1148.01 115.15V52H1175.46V115.15ZM1191.11 154V52H1232.21C1264.76 52 1284.86 71.5 1284.86 103.15C1284.86 134.8 1264.76 154 1232.21 154H1191.11ZM1232.21 131.8C1247.81 131.8 1256.81 121.45 1256.81 103.15C1256.81 84.85 1247.81 74.2 1232.21 74.2H1218.56V131.8H1232.21ZM1298.34 154V52H1325.79V154H1298.34ZM1391.18 156.7C1359.08 156.7 1339.13 136.15 1339.13 103.15C1339.13 70 1359.08 49.3 1391.18 49.3C1423.28 49.3 1443.23 70 1443.23 103.15C1443.23 136.15 1423.28 156.7 1391.18 156.7ZM1391.18 134.35C1406.48 134.35 1415.18 122.65 1415.18 103.15C1415.18 83.5 1406.48 71.65 1391.18 71.65C1376.03 71.65 1367.18 83.5 1367.18 103.15C1367.18 122.65 1376.03 134.35 1391.18 134.35Z" fill="black"/>
<path d="M0 172.75H1448.48V180.25H0V172.75Z" fill="black"/>
</svg>
